G04 EAGLE Gerber RS-274X export*
G75*
%MOMM*%
%FSLAX34Y34*%
%LPD*%
%IN*%
%IPPOS*%
%AMOC8*
5,1,8,0,0,1.08239X$1,22.5*%
G01*
%ADD10C,0.152400*%
%ADD11C,0.000000*%
%ADD12C,0.254000*%


D10*
X254000Y152400D02*
X254000Y-736600D01*
X1168400Y-736600D01*
X1168400Y152400D01*
X254000Y152400D01*
D11*
X929880Y76200D02*
X929885Y76568D01*
X929898Y76936D01*
X929921Y77303D01*
X929952Y77670D01*
X929993Y78036D01*
X930042Y78401D01*
X930101Y78764D01*
X930168Y79126D01*
X930244Y79487D01*
X930330Y79845D01*
X930423Y80201D01*
X930526Y80554D01*
X930637Y80905D01*
X930757Y81253D01*
X930885Y81598D01*
X931022Y81940D01*
X931167Y82279D01*
X931320Y82613D01*
X931482Y82944D01*
X931651Y83271D01*
X931829Y83593D01*
X932014Y83912D01*
X932207Y84225D01*
X932408Y84534D01*
X932616Y84837D01*
X932832Y85135D01*
X933055Y85428D01*
X933285Y85716D01*
X933522Y85998D01*
X933766Y86273D01*
X934016Y86543D01*
X934273Y86807D01*
X934537Y87064D01*
X934807Y87314D01*
X935082Y87558D01*
X935364Y87795D01*
X935652Y88025D01*
X935945Y88248D01*
X936243Y88464D01*
X936546Y88672D01*
X936855Y88873D01*
X937168Y89066D01*
X937487Y89251D01*
X937809Y89429D01*
X938136Y89598D01*
X938467Y89760D01*
X938801Y89913D01*
X939140Y90058D01*
X939482Y90195D01*
X939827Y90323D01*
X940175Y90443D01*
X940526Y90554D01*
X940879Y90657D01*
X941235Y90750D01*
X941593Y90836D01*
X941954Y90912D01*
X942316Y90979D01*
X942679Y91038D01*
X943044Y91087D01*
X943410Y91128D01*
X943777Y91159D01*
X944144Y91182D01*
X944512Y91195D01*
X944880Y91200D01*
X945248Y91195D01*
X945616Y91182D01*
X945983Y91159D01*
X946350Y91128D01*
X946716Y91087D01*
X947081Y91038D01*
X947444Y90979D01*
X947806Y90912D01*
X948167Y90836D01*
X948525Y90750D01*
X948881Y90657D01*
X949234Y90554D01*
X949585Y90443D01*
X949933Y90323D01*
X950278Y90195D01*
X950620Y90058D01*
X950959Y89913D01*
X951293Y89760D01*
X951624Y89598D01*
X951951Y89429D01*
X952273Y89251D01*
X952592Y89066D01*
X952905Y88873D01*
X953214Y88672D01*
X953517Y88464D01*
X953815Y88248D01*
X954108Y88025D01*
X954396Y87795D01*
X954678Y87558D01*
X954953Y87314D01*
X955223Y87064D01*
X955487Y86807D01*
X955744Y86543D01*
X955994Y86273D01*
X956238Y85998D01*
X956475Y85716D01*
X956705Y85428D01*
X956928Y85135D01*
X957144Y84837D01*
X957352Y84534D01*
X957553Y84225D01*
X957746Y83912D01*
X957931Y83593D01*
X958109Y83271D01*
X958278Y82944D01*
X958440Y82613D01*
X958593Y82279D01*
X958738Y81940D01*
X958875Y81598D01*
X959003Y81253D01*
X959123Y80905D01*
X959234Y80554D01*
X959337Y80201D01*
X959430Y79845D01*
X959516Y79487D01*
X959592Y79126D01*
X959659Y78764D01*
X959718Y78401D01*
X959767Y78036D01*
X959808Y77670D01*
X959839Y77303D01*
X959862Y76936D01*
X959875Y76568D01*
X959880Y76200D01*
X959875Y75832D01*
X959862Y75464D01*
X959839Y75097D01*
X959808Y74730D01*
X959767Y74364D01*
X959718Y73999D01*
X959659Y73636D01*
X959592Y73274D01*
X959516Y72913D01*
X959430Y72555D01*
X959337Y72199D01*
X959234Y71846D01*
X959123Y71495D01*
X959003Y71147D01*
X958875Y70802D01*
X958738Y70460D01*
X958593Y70121D01*
X958440Y69787D01*
X958278Y69456D01*
X958109Y69129D01*
X957931Y68807D01*
X957746Y68488D01*
X957553Y68175D01*
X957352Y67866D01*
X957144Y67563D01*
X956928Y67265D01*
X956705Y66972D01*
X956475Y66684D01*
X956238Y66402D01*
X955994Y66127D01*
X955744Y65857D01*
X955487Y65593D01*
X955223Y65336D01*
X954953Y65086D01*
X954678Y64842D01*
X954396Y64605D01*
X954108Y64375D01*
X953815Y64152D01*
X953517Y63936D01*
X953214Y63728D01*
X952905Y63527D01*
X952592Y63334D01*
X952273Y63149D01*
X951951Y62971D01*
X951624Y62802D01*
X951293Y62640D01*
X950959Y62487D01*
X950620Y62342D01*
X950278Y62205D01*
X949933Y62077D01*
X949585Y61957D01*
X949234Y61846D01*
X948881Y61743D01*
X948525Y61650D01*
X948167Y61564D01*
X947806Y61488D01*
X947444Y61421D01*
X947081Y61362D01*
X946716Y61313D01*
X946350Y61272D01*
X945983Y61241D01*
X945616Y61218D01*
X945248Y61205D01*
X944880Y61200D01*
X944512Y61205D01*
X944144Y61218D01*
X943777Y61241D01*
X943410Y61272D01*
X943044Y61313D01*
X942679Y61362D01*
X942316Y61421D01*
X941954Y61488D01*
X941593Y61564D01*
X941235Y61650D01*
X940879Y61743D01*
X940526Y61846D01*
X940175Y61957D01*
X939827Y62077D01*
X939482Y62205D01*
X939140Y62342D01*
X938801Y62487D01*
X938467Y62640D01*
X938136Y62802D01*
X937809Y62971D01*
X937487Y63149D01*
X937168Y63334D01*
X936855Y63527D01*
X936546Y63728D01*
X936243Y63936D01*
X935945Y64152D01*
X935652Y64375D01*
X935364Y64605D01*
X935082Y64842D01*
X934807Y65086D01*
X934537Y65336D01*
X934273Y65593D01*
X934016Y65857D01*
X933766Y66127D01*
X933522Y66402D01*
X933285Y66684D01*
X933055Y66972D01*
X932832Y67265D01*
X932616Y67563D01*
X932408Y67866D01*
X932207Y68175D01*
X932014Y68488D01*
X931829Y68807D01*
X931651Y69129D01*
X931482Y69456D01*
X931320Y69787D01*
X931167Y70121D01*
X931022Y70460D01*
X930885Y70802D01*
X930757Y71147D01*
X930637Y71495D01*
X930526Y71846D01*
X930423Y72199D01*
X930330Y72555D01*
X930244Y72913D01*
X930168Y73274D01*
X930101Y73636D01*
X930042Y73999D01*
X929993Y74364D01*
X929952Y74730D01*
X929921Y75097D01*
X929898Y75464D01*
X929885Y75832D01*
X929880Y76200D01*
X632700Y-76200D02*
X632705Y-75832D01*
X632718Y-75464D01*
X632741Y-75097D01*
X632772Y-74730D01*
X632813Y-74364D01*
X632862Y-73999D01*
X632921Y-73636D01*
X632988Y-73274D01*
X633064Y-72913D01*
X633150Y-72555D01*
X633243Y-72199D01*
X633346Y-71846D01*
X633457Y-71495D01*
X633577Y-71147D01*
X633705Y-70802D01*
X633842Y-70460D01*
X633987Y-70121D01*
X634140Y-69787D01*
X634302Y-69456D01*
X634471Y-69129D01*
X634649Y-68807D01*
X634834Y-68488D01*
X635027Y-68175D01*
X635228Y-67866D01*
X635436Y-67563D01*
X635652Y-67265D01*
X635875Y-66972D01*
X636105Y-66684D01*
X636342Y-66402D01*
X636586Y-66127D01*
X636836Y-65857D01*
X637093Y-65593D01*
X637357Y-65336D01*
X637627Y-65086D01*
X637902Y-64842D01*
X638184Y-64605D01*
X638472Y-64375D01*
X638765Y-64152D01*
X639063Y-63936D01*
X639366Y-63728D01*
X639675Y-63527D01*
X639988Y-63334D01*
X640307Y-63149D01*
X640629Y-62971D01*
X640956Y-62802D01*
X641287Y-62640D01*
X641621Y-62487D01*
X641960Y-62342D01*
X642302Y-62205D01*
X642647Y-62077D01*
X642995Y-61957D01*
X643346Y-61846D01*
X643699Y-61743D01*
X644055Y-61650D01*
X644413Y-61564D01*
X644774Y-61488D01*
X645136Y-61421D01*
X645499Y-61362D01*
X645864Y-61313D01*
X646230Y-61272D01*
X646597Y-61241D01*
X646964Y-61218D01*
X647332Y-61205D01*
X647700Y-61200D01*
X648068Y-61205D01*
X648436Y-61218D01*
X648803Y-61241D01*
X649170Y-61272D01*
X649536Y-61313D01*
X649901Y-61362D01*
X650264Y-61421D01*
X650626Y-61488D01*
X650987Y-61564D01*
X651345Y-61650D01*
X651701Y-61743D01*
X652054Y-61846D01*
X652405Y-61957D01*
X652753Y-62077D01*
X653098Y-62205D01*
X653440Y-62342D01*
X653779Y-62487D01*
X654113Y-62640D01*
X654444Y-62802D01*
X654771Y-62971D01*
X655093Y-63149D01*
X655412Y-63334D01*
X655725Y-63527D01*
X656034Y-63728D01*
X656337Y-63936D01*
X656635Y-64152D01*
X656928Y-64375D01*
X657216Y-64605D01*
X657498Y-64842D01*
X657773Y-65086D01*
X658043Y-65336D01*
X658307Y-65593D01*
X658564Y-65857D01*
X658814Y-66127D01*
X659058Y-66402D01*
X659295Y-66684D01*
X659525Y-66972D01*
X659748Y-67265D01*
X659964Y-67563D01*
X660172Y-67866D01*
X660373Y-68175D01*
X660566Y-68488D01*
X660751Y-68807D01*
X660929Y-69129D01*
X661098Y-69456D01*
X661260Y-69787D01*
X661413Y-70121D01*
X661558Y-70460D01*
X661695Y-70802D01*
X661823Y-71147D01*
X661943Y-71495D01*
X662054Y-71846D01*
X662157Y-72199D01*
X662250Y-72555D01*
X662336Y-72913D01*
X662412Y-73274D01*
X662479Y-73636D01*
X662538Y-73999D01*
X662587Y-74364D01*
X662628Y-74730D01*
X662659Y-75097D01*
X662682Y-75464D01*
X662695Y-75832D01*
X662700Y-76200D01*
X662695Y-76568D01*
X662682Y-76936D01*
X662659Y-77303D01*
X662628Y-77670D01*
X662587Y-78036D01*
X662538Y-78401D01*
X662479Y-78764D01*
X662412Y-79126D01*
X662336Y-79487D01*
X662250Y-79845D01*
X662157Y-80201D01*
X662054Y-80554D01*
X661943Y-80905D01*
X661823Y-81253D01*
X661695Y-81598D01*
X661558Y-81940D01*
X661413Y-82279D01*
X661260Y-82613D01*
X661098Y-82944D01*
X660929Y-83271D01*
X660751Y-83593D01*
X660566Y-83912D01*
X660373Y-84225D01*
X660172Y-84534D01*
X659964Y-84837D01*
X659748Y-85135D01*
X659525Y-85428D01*
X659295Y-85716D01*
X659058Y-85998D01*
X658814Y-86273D01*
X658564Y-86543D01*
X658307Y-86807D01*
X658043Y-87064D01*
X657773Y-87314D01*
X657498Y-87558D01*
X657216Y-87795D01*
X656928Y-88025D01*
X656635Y-88248D01*
X656337Y-88464D01*
X656034Y-88672D01*
X655725Y-88873D01*
X655412Y-89066D01*
X655093Y-89251D01*
X654771Y-89429D01*
X654444Y-89598D01*
X654113Y-89760D01*
X653779Y-89913D01*
X653440Y-90058D01*
X653098Y-90195D01*
X652753Y-90323D01*
X652405Y-90443D01*
X652054Y-90554D01*
X651701Y-90657D01*
X651345Y-90750D01*
X650987Y-90836D01*
X650626Y-90912D01*
X650264Y-90979D01*
X649901Y-91038D01*
X649536Y-91087D01*
X649170Y-91128D01*
X648803Y-91159D01*
X648436Y-91182D01*
X648068Y-91195D01*
X647700Y-91200D01*
X647332Y-91195D01*
X646964Y-91182D01*
X646597Y-91159D01*
X646230Y-91128D01*
X645864Y-91087D01*
X645499Y-91038D01*
X645136Y-90979D01*
X644774Y-90912D01*
X644413Y-90836D01*
X644055Y-90750D01*
X643699Y-90657D01*
X643346Y-90554D01*
X642995Y-90443D01*
X642647Y-90323D01*
X642302Y-90195D01*
X641960Y-90058D01*
X641621Y-89913D01*
X641287Y-89760D01*
X640956Y-89598D01*
X640629Y-89429D01*
X640307Y-89251D01*
X639988Y-89066D01*
X639675Y-88873D01*
X639366Y-88672D01*
X639063Y-88464D01*
X638765Y-88248D01*
X638472Y-88025D01*
X638184Y-87795D01*
X637902Y-87558D01*
X637627Y-87314D01*
X637357Y-87064D01*
X637093Y-86807D01*
X636836Y-86543D01*
X636586Y-86273D01*
X636342Y-85998D01*
X636105Y-85716D01*
X635875Y-85428D01*
X635652Y-85135D01*
X635436Y-84837D01*
X635228Y-84534D01*
X635027Y-84225D01*
X634834Y-83912D01*
X634649Y-83593D01*
X634471Y-83271D01*
X634302Y-82944D01*
X634140Y-82613D01*
X633987Y-82279D01*
X633842Y-81940D01*
X633705Y-81598D01*
X633577Y-81253D01*
X633457Y-80905D01*
X633346Y-80554D01*
X633243Y-80201D01*
X633150Y-79845D01*
X633064Y-79487D01*
X632988Y-79126D01*
X632921Y-78764D01*
X632862Y-78401D01*
X632813Y-78036D01*
X632772Y-77670D01*
X632741Y-77303D01*
X632718Y-76936D01*
X632705Y-76568D01*
X632700Y-76200D01*
X505700Y43180D02*
X505705Y43548D01*
X505718Y43916D01*
X505741Y44283D01*
X505772Y44650D01*
X505813Y45016D01*
X505862Y45381D01*
X505921Y45744D01*
X505988Y46106D01*
X506064Y46467D01*
X506150Y46825D01*
X506243Y47181D01*
X506346Y47534D01*
X506457Y47885D01*
X506577Y48233D01*
X506705Y48578D01*
X506842Y48920D01*
X506987Y49259D01*
X507140Y49593D01*
X507302Y49924D01*
X507471Y50251D01*
X507649Y50573D01*
X507834Y50892D01*
X508027Y51205D01*
X508228Y51514D01*
X508436Y51817D01*
X508652Y52115D01*
X508875Y52408D01*
X509105Y52696D01*
X509342Y52978D01*
X509586Y53253D01*
X509836Y53523D01*
X510093Y53787D01*
X510357Y54044D01*
X510627Y54294D01*
X510902Y54538D01*
X511184Y54775D01*
X511472Y55005D01*
X511765Y55228D01*
X512063Y55444D01*
X512366Y55652D01*
X512675Y55853D01*
X512988Y56046D01*
X513307Y56231D01*
X513629Y56409D01*
X513956Y56578D01*
X514287Y56740D01*
X514621Y56893D01*
X514960Y57038D01*
X515302Y57175D01*
X515647Y57303D01*
X515995Y57423D01*
X516346Y57534D01*
X516699Y57637D01*
X517055Y57730D01*
X517413Y57816D01*
X517774Y57892D01*
X518136Y57959D01*
X518499Y58018D01*
X518864Y58067D01*
X519230Y58108D01*
X519597Y58139D01*
X519964Y58162D01*
X520332Y58175D01*
X520700Y58180D01*
X521068Y58175D01*
X521436Y58162D01*
X521803Y58139D01*
X522170Y58108D01*
X522536Y58067D01*
X522901Y58018D01*
X523264Y57959D01*
X523626Y57892D01*
X523987Y57816D01*
X524345Y57730D01*
X524701Y57637D01*
X525054Y57534D01*
X525405Y57423D01*
X525753Y57303D01*
X526098Y57175D01*
X526440Y57038D01*
X526779Y56893D01*
X527113Y56740D01*
X527444Y56578D01*
X527771Y56409D01*
X528093Y56231D01*
X528412Y56046D01*
X528725Y55853D01*
X529034Y55652D01*
X529337Y55444D01*
X529635Y55228D01*
X529928Y55005D01*
X530216Y54775D01*
X530498Y54538D01*
X530773Y54294D01*
X531043Y54044D01*
X531307Y53787D01*
X531564Y53523D01*
X531814Y53253D01*
X532058Y52978D01*
X532295Y52696D01*
X532525Y52408D01*
X532748Y52115D01*
X532964Y51817D01*
X533172Y51514D01*
X533373Y51205D01*
X533566Y50892D01*
X533751Y50573D01*
X533929Y50251D01*
X534098Y49924D01*
X534260Y49593D01*
X534413Y49259D01*
X534558Y48920D01*
X534695Y48578D01*
X534823Y48233D01*
X534943Y47885D01*
X535054Y47534D01*
X535157Y47181D01*
X535250Y46825D01*
X535336Y46467D01*
X535412Y46106D01*
X535479Y45744D01*
X535538Y45381D01*
X535587Y45016D01*
X535628Y44650D01*
X535659Y44283D01*
X535682Y43916D01*
X535695Y43548D01*
X535700Y43180D01*
X535695Y42812D01*
X535682Y42444D01*
X535659Y42077D01*
X535628Y41710D01*
X535587Y41344D01*
X535538Y40979D01*
X535479Y40616D01*
X535412Y40254D01*
X535336Y39893D01*
X535250Y39535D01*
X535157Y39179D01*
X535054Y38826D01*
X534943Y38475D01*
X534823Y38127D01*
X534695Y37782D01*
X534558Y37440D01*
X534413Y37101D01*
X534260Y36767D01*
X534098Y36436D01*
X533929Y36109D01*
X533751Y35787D01*
X533566Y35468D01*
X533373Y35155D01*
X533172Y34846D01*
X532964Y34543D01*
X532748Y34245D01*
X532525Y33952D01*
X532295Y33664D01*
X532058Y33382D01*
X531814Y33107D01*
X531564Y32837D01*
X531307Y32573D01*
X531043Y32316D01*
X530773Y32066D01*
X530498Y31822D01*
X530216Y31585D01*
X529928Y31355D01*
X529635Y31132D01*
X529337Y30916D01*
X529034Y30708D01*
X528725Y30507D01*
X528412Y30314D01*
X528093Y30129D01*
X527771Y29951D01*
X527444Y29782D01*
X527113Y29620D01*
X526779Y29467D01*
X526440Y29322D01*
X526098Y29185D01*
X525753Y29057D01*
X525405Y28937D01*
X525054Y28826D01*
X524701Y28723D01*
X524345Y28630D01*
X523987Y28544D01*
X523626Y28468D01*
X523264Y28401D01*
X522901Y28342D01*
X522536Y28293D01*
X522170Y28252D01*
X521803Y28221D01*
X521436Y28198D01*
X521068Y28185D01*
X520700Y28180D01*
X520332Y28185D01*
X519964Y28198D01*
X519597Y28221D01*
X519230Y28252D01*
X518864Y28293D01*
X518499Y28342D01*
X518136Y28401D01*
X517774Y28468D01*
X517413Y28544D01*
X517055Y28630D01*
X516699Y28723D01*
X516346Y28826D01*
X515995Y28937D01*
X515647Y29057D01*
X515302Y29185D01*
X514960Y29322D01*
X514621Y29467D01*
X514287Y29620D01*
X513956Y29782D01*
X513629Y29951D01*
X513307Y30129D01*
X512988Y30314D01*
X512675Y30507D01*
X512366Y30708D01*
X512063Y30916D01*
X511765Y31132D01*
X511472Y31355D01*
X511184Y31585D01*
X510902Y31822D01*
X510627Y32066D01*
X510357Y32316D01*
X510093Y32573D01*
X509836Y32837D01*
X509586Y33107D01*
X509342Y33382D01*
X509105Y33664D01*
X508875Y33952D01*
X508652Y34245D01*
X508436Y34543D01*
X508228Y34846D01*
X508027Y35155D01*
X507834Y35468D01*
X507649Y35787D01*
X507471Y36109D01*
X507302Y36436D01*
X507140Y36767D01*
X506987Y37101D01*
X506842Y37440D01*
X506705Y37782D01*
X506577Y38127D01*
X506457Y38475D01*
X506346Y38826D01*
X506243Y39179D01*
X506150Y39535D01*
X506064Y39893D01*
X505988Y40254D01*
X505921Y40616D01*
X505862Y40979D01*
X505813Y41344D01*
X505772Y41710D01*
X505741Y42077D01*
X505718Y42444D01*
X505705Y42812D01*
X505700Y43180D01*
X353300Y-254000D02*
X353305Y-253632D01*
X353318Y-253264D01*
X353341Y-252897D01*
X353372Y-252530D01*
X353413Y-252164D01*
X353462Y-251799D01*
X353521Y-251436D01*
X353588Y-251074D01*
X353664Y-250713D01*
X353750Y-250355D01*
X353843Y-249999D01*
X353946Y-249646D01*
X354057Y-249295D01*
X354177Y-248947D01*
X354305Y-248602D01*
X354442Y-248260D01*
X354587Y-247921D01*
X354740Y-247587D01*
X354902Y-247256D01*
X355071Y-246929D01*
X355249Y-246607D01*
X355434Y-246288D01*
X355627Y-245975D01*
X355828Y-245666D01*
X356036Y-245363D01*
X356252Y-245065D01*
X356475Y-244772D01*
X356705Y-244484D01*
X356942Y-244202D01*
X357186Y-243927D01*
X357436Y-243657D01*
X357693Y-243393D01*
X357957Y-243136D01*
X358227Y-242886D01*
X358502Y-242642D01*
X358784Y-242405D01*
X359072Y-242175D01*
X359365Y-241952D01*
X359663Y-241736D01*
X359966Y-241528D01*
X360275Y-241327D01*
X360588Y-241134D01*
X360907Y-240949D01*
X361229Y-240771D01*
X361556Y-240602D01*
X361887Y-240440D01*
X362221Y-240287D01*
X362560Y-240142D01*
X362902Y-240005D01*
X363247Y-239877D01*
X363595Y-239757D01*
X363946Y-239646D01*
X364299Y-239543D01*
X364655Y-239450D01*
X365013Y-239364D01*
X365374Y-239288D01*
X365736Y-239221D01*
X366099Y-239162D01*
X366464Y-239113D01*
X366830Y-239072D01*
X367197Y-239041D01*
X367564Y-239018D01*
X367932Y-239005D01*
X368300Y-239000D01*
X368668Y-239005D01*
X369036Y-239018D01*
X369403Y-239041D01*
X369770Y-239072D01*
X370136Y-239113D01*
X370501Y-239162D01*
X370864Y-239221D01*
X371226Y-239288D01*
X371587Y-239364D01*
X371945Y-239450D01*
X372301Y-239543D01*
X372654Y-239646D01*
X373005Y-239757D01*
X373353Y-239877D01*
X373698Y-240005D01*
X374040Y-240142D01*
X374379Y-240287D01*
X374713Y-240440D01*
X375044Y-240602D01*
X375371Y-240771D01*
X375693Y-240949D01*
X376012Y-241134D01*
X376325Y-241327D01*
X376634Y-241528D01*
X376937Y-241736D01*
X377235Y-241952D01*
X377528Y-242175D01*
X377816Y-242405D01*
X378098Y-242642D01*
X378373Y-242886D01*
X378643Y-243136D01*
X378907Y-243393D01*
X379164Y-243657D01*
X379414Y-243927D01*
X379658Y-244202D01*
X379895Y-244484D01*
X380125Y-244772D01*
X380348Y-245065D01*
X380564Y-245363D01*
X380772Y-245666D01*
X380973Y-245975D01*
X381166Y-246288D01*
X381351Y-246607D01*
X381529Y-246929D01*
X381698Y-247256D01*
X381860Y-247587D01*
X382013Y-247921D01*
X382158Y-248260D01*
X382295Y-248602D01*
X382423Y-248947D01*
X382543Y-249295D01*
X382654Y-249646D01*
X382757Y-249999D01*
X382850Y-250355D01*
X382936Y-250713D01*
X383012Y-251074D01*
X383079Y-251436D01*
X383138Y-251799D01*
X383187Y-252164D01*
X383228Y-252530D01*
X383259Y-252897D01*
X383282Y-253264D01*
X383295Y-253632D01*
X383300Y-254000D01*
X383295Y-254368D01*
X383282Y-254736D01*
X383259Y-255103D01*
X383228Y-255470D01*
X383187Y-255836D01*
X383138Y-256201D01*
X383079Y-256564D01*
X383012Y-256926D01*
X382936Y-257287D01*
X382850Y-257645D01*
X382757Y-258001D01*
X382654Y-258354D01*
X382543Y-258705D01*
X382423Y-259053D01*
X382295Y-259398D01*
X382158Y-259740D01*
X382013Y-260079D01*
X381860Y-260413D01*
X381698Y-260744D01*
X381529Y-261071D01*
X381351Y-261393D01*
X381166Y-261712D01*
X380973Y-262025D01*
X380772Y-262334D01*
X380564Y-262637D01*
X380348Y-262935D01*
X380125Y-263228D01*
X379895Y-263516D01*
X379658Y-263798D01*
X379414Y-264073D01*
X379164Y-264343D01*
X378907Y-264607D01*
X378643Y-264864D01*
X378373Y-265114D01*
X378098Y-265358D01*
X377816Y-265595D01*
X377528Y-265825D01*
X377235Y-266048D01*
X376937Y-266264D01*
X376634Y-266472D01*
X376325Y-266673D01*
X376012Y-266866D01*
X375693Y-267051D01*
X375371Y-267229D01*
X375044Y-267398D01*
X374713Y-267560D01*
X374379Y-267713D01*
X374040Y-267858D01*
X373698Y-267995D01*
X373353Y-268123D01*
X373005Y-268243D01*
X372654Y-268354D01*
X372301Y-268457D01*
X371945Y-268550D01*
X371587Y-268636D01*
X371226Y-268712D01*
X370864Y-268779D01*
X370501Y-268838D01*
X370136Y-268887D01*
X369770Y-268928D01*
X369403Y-268959D01*
X369036Y-268982D01*
X368668Y-268995D01*
X368300Y-269000D01*
X367932Y-268995D01*
X367564Y-268982D01*
X367197Y-268959D01*
X366830Y-268928D01*
X366464Y-268887D01*
X366099Y-268838D01*
X365736Y-268779D01*
X365374Y-268712D01*
X365013Y-268636D01*
X364655Y-268550D01*
X364299Y-268457D01*
X363946Y-268354D01*
X363595Y-268243D01*
X363247Y-268123D01*
X362902Y-267995D01*
X362560Y-267858D01*
X362221Y-267713D01*
X361887Y-267560D01*
X361556Y-267398D01*
X361229Y-267229D01*
X360907Y-267051D01*
X360588Y-266866D01*
X360275Y-266673D01*
X359966Y-266472D01*
X359663Y-266264D01*
X359365Y-266048D01*
X359072Y-265825D01*
X358784Y-265595D01*
X358502Y-265358D01*
X358227Y-265114D01*
X357957Y-264864D01*
X357693Y-264607D01*
X357436Y-264343D01*
X357186Y-264073D01*
X356942Y-263798D01*
X356705Y-263516D01*
X356475Y-263228D01*
X356252Y-262935D01*
X356036Y-262637D01*
X355828Y-262334D01*
X355627Y-262025D01*
X355434Y-261712D01*
X355249Y-261393D01*
X355071Y-261071D01*
X354902Y-260744D01*
X354740Y-260413D01*
X354587Y-260079D01*
X354442Y-259740D01*
X354305Y-259398D01*
X354177Y-259053D01*
X354057Y-258705D01*
X353946Y-258354D01*
X353843Y-258001D01*
X353750Y-257645D01*
X353664Y-257287D01*
X353588Y-256926D01*
X353521Y-256564D01*
X353462Y-256201D01*
X353413Y-255836D01*
X353372Y-255470D01*
X353341Y-255103D01*
X353318Y-254736D01*
X353305Y-254368D01*
X353300Y-254000D01*
X855345Y-571500D02*
X855347Y-571297D01*
X855355Y-571095D01*
X855367Y-570893D01*
X855385Y-570691D01*
X855407Y-570489D01*
X855434Y-570289D01*
X855467Y-570089D01*
X855504Y-569890D01*
X855546Y-569691D01*
X855592Y-569494D01*
X855644Y-569298D01*
X855700Y-569104D01*
X855762Y-568911D01*
X855828Y-568719D01*
X855898Y-568529D01*
X855973Y-568341D01*
X856053Y-568155D01*
X856138Y-567971D01*
X856226Y-567788D01*
X856320Y-567609D01*
X856417Y-567431D01*
X856519Y-567256D01*
X856626Y-567084D01*
X856736Y-566914D01*
X856851Y-566747D01*
X856970Y-566583D01*
X857092Y-566421D01*
X857219Y-566263D01*
X857349Y-566108D01*
X857483Y-565956D01*
X857621Y-565808D01*
X857763Y-565663D01*
X857908Y-565521D01*
X858056Y-565383D01*
X858208Y-565249D01*
X858363Y-565119D01*
X858521Y-564992D01*
X858683Y-564870D01*
X858847Y-564751D01*
X859014Y-564636D01*
X859184Y-564526D01*
X859356Y-564419D01*
X859531Y-564317D01*
X859709Y-564220D01*
X859888Y-564126D01*
X860071Y-564038D01*
X860255Y-563953D01*
X860441Y-563873D01*
X860629Y-563798D01*
X860819Y-563728D01*
X861011Y-563662D01*
X861204Y-563600D01*
X861398Y-563544D01*
X861594Y-563492D01*
X861791Y-563446D01*
X861990Y-563404D01*
X862189Y-563367D01*
X862389Y-563334D01*
X862589Y-563307D01*
X862791Y-563285D01*
X862993Y-563267D01*
X863195Y-563255D01*
X863397Y-563247D01*
X863600Y-563245D01*
X863803Y-563247D01*
X864005Y-563255D01*
X864207Y-563267D01*
X864409Y-563285D01*
X864611Y-563307D01*
X864811Y-563334D01*
X865011Y-563367D01*
X865210Y-563404D01*
X865409Y-563446D01*
X865606Y-563492D01*
X865802Y-563544D01*
X865996Y-563600D01*
X866189Y-563662D01*
X866381Y-563728D01*
X866571Y-563798D01*
X866759Y-563873D01*
X866945Y-563953D01*
X867129Y-564038D01*
X867312Y-564126D01*
X867491Y-564220D01*
X867669Y-564317D01*
X867844Y-564419D01*
X868016Y-564526D01*
X868186Y-564636D01*
X868353Y-564751D01*
X868517Y-564870D01*
X868679Y-564992D01*
X868837Y-565119D01*
X868992Y-565249D01*
X869144Y-565383D01*
X869292Y-565521D01*
X869437Y-565663D01*
X869579Y-565808D01*
X869717Y-565956D01*
X869851Y-566108D01*
X869981Y-566263D01*
X870108Y-566421D01*
X870230Y-566583D01*
X870349Y-566747D01*
X870464Y-566914D01*
X870574Y-567084D01*
X870681Y-567256D01*
X870783Y-567431D01*
X870880Y-567609D01*
X870974Y-567788D01*
X871062Y-567971D01*
X871147Y-568155D01*
X871227Y-568341D01*
X871302Y-568529D01*
X871372Y-568719D01*
X871438Y-568911D01*
X871500Y-569104D01*
X871556Y-569298D01*
X871608Y-569494D01*
X871654Y-569691D01*
X871696Y-569890D01*
X871733Y-570089D01*
X871766Y-570289D01*
X871793Y-570489D01*
X871815Y-570691D01*
X871833Y-570893D01*
X871845Y-571095D01*
X871853Y-571297D01*
X871855Y-571500D01*
X871853Y-571703D01*
X871845Y-571905D01*
X871833Y-572107D01*
X871815Y-572309D01*
X871793Y-572511D01*
X871766Y-572711D01*
X871733Y-572911D01*
X871696Y-573110D01*
X871654Y-573309D01*
X871608Y-573506D01*
X871556Y-573702D01*
X871500Y-573896D01*
X871438Y-574089D01*
X871372Y-574281D01*
X871302Y-574471D01*
X871227Y-574659D01*
X871147Y-574845D01*
X871062Y-575029D01*
X870974Y-575212D01*
X870880Y-575391D01*
X870783Y-575569D01*
X870681Y-575744D01*
X870574Y-575916D01*
X870464Y-576086D01*
X870349Y-576253D01*
X870230Y-576417D01*
X870108Y-576579D01*
X869981Y-576737D01*
X869851Y-576892D01*
X869717Y-577044D01*
X869579Y-577192D01*
X869437Y-577337D01*
X869292Y-577479D01*
X869144Y-577617D01*
X868992Y-577751D01*
X868837Y-577881D01*
X868679Y-578008D01*
X868517Y-578130D01*
X868353Y-578249D01*
X868186Y-578364D01*
X868016Y-578474D01*
X867844Y-578581D01*
X867669Y-578683D01*
X867491Y-578780D01*
X867312Y-578874D01*
X867129Y-578962D01*
X866945Y-579047D01*
X866759Y-579127D01*
X866571Y-579202D01*
X866381Y-579272D01*
X866189Y-579338D01*
X865996Y-579400D01*
X865802Y-579456D01*
X865606Y-579508D01*
X865409Y-579554D01*
X865210Y-579596D01*
X865011Y-579633D01*
X864811Y-579666D01*
X864611Y-579693D01*
X864409Y-579715D01*
X864207Y-579733D01*
X864005Y-579745D01*
X863803Y-579753D01*
X863600Y-579755D01*
X863397Y-579753D01*
X863195Y-579745D01*
X862993Y-579733D01*
X862791Y-579715D01*
X862589Y-579693D01*
X862389Y-579666D01*
X862189Y-579633D01*
X861990Y-579596D01*
X861791Y-579554D01*
X861594Y-579508D01*
X861398Y-579456D01*
X861204Y-579400D01*
X861011Y-579338D01*
X860819Y-579272D01*
X860629Y-579202D01*
X860441Y-579127D01*
X860255Y-579047D01*
X860071Y-578962D01*
X859888Y-578874D01*
X859709Y-578780D01*
X859531Y-578683D01*
X859356Y-578581D01*
X859184Y-578474D01*
X859014Y-578364D01*
X858847Y-578249D01*
X858683Y-578130D01*
X858521Y-578008D01*
X858363Y-577881D01*
X858208Y-577751D01*
X858056Y-577617D01*
X857908Y-577479D01*
X857763Y-577337D01*
X857621Y-577192D01*
X857483Y-577044D01*
X857349Y-576892D01*
X857219Y-576737D01*
X857092Y-576579D01*
X856970Y-576417D01*
X856851Y-576253D01*
X856736Y-576086D01*
X856626Y-575916D01*
X856519Y-575744D01*
X856417Y-575569D01*
X856320Y-575391D01*
X856226Y-575212D01*
X856138Y-575029D01*
X856053Y-574845D01*
X855973Y-574659D01*
X855898Y-574471D01*
X855828Y-574281D01*
X855762Y-574089D01*
X855700Y-573896D01*
X855644Y-573702D01*
X855592Y-573506D01*
X855546Y-573309D01*
X855504Y-573110D01*
X855467Y-572911D01*
X855434Y-572711D01*
X855407Y-572511D01*
X855385Y-572309D01*
X855367Y-572107D01*
X855355Y-571905D01*
X855347Y-571703D01*
X855345Y-571500D01*
X702945Y-571500D02*
X702947Y-571297D01*
X702955Y-571095D01*
X702967Y-570893D01*
X702985Y-570691D01*
X703007Y-570489D01*
X703034Y-570289D01*
X703067Y-570089D01*
X703104Y-569890D01*
X703146Y-569691D01*
X703192Y-569494D01*
X703244Y-569298D01*
X703300Y-569104D01*
X703362Y-568911D01*
X703428Y-568719D01*
X703498Y-568529D01*
X703573Y-568341D01*
X703653Y-568155D01*
X703738Y-567971D01*
X703826Y-567788D01*
X703920Y-567609D01*
X704017Y-567431D01*
X704119Y-567256D01*
X704226Y-567084D01*
X704336Y-566914D01*
X704451Y-566747D01*
X704570Y-566583D01*
X704692Y-566421D01*
X704819Y-566263D01*
X704949Y-566108D01*
X705083Y-565956D01*
X705221Y-565808D01*
X705363Y-565663D01*
X705508Y-565521D01*
X705656Y-565383D01*
X705808Y-565249D01*
X705963Y-565119D01*
X706121Y-564992D01*
X706283Y-564870D01*
X706447Y-564751D01*
X706614Y-564636D01*
X706784Y-564526D01*
X706956Y-564419D01*
X707131Y-564317D01*
X707309Y-564220D01*
X707488Y-564126D01*
X707671Y-564038D01*
X707855Y-563953D01*
X708041Y-563873D01*
X708229Y-563798D01*
X708419Y-563728D01*
X708611Y-563662D01*
X708804Y-563600D01*
X708998Y-563544D01*
X709194Y-563492D01*
X709391Y-563446D01*
X709590Y-563404D01*
X709789Y-563367D01*
X709989Y-563334D01*
X710189Y-563307D01*
X710391Y-563285D01*
X710593Y-563267D01*
X710795Y-563255D01*
X710997Y-563247D01*
X711200Y-563245D01*
X711403Y-563247D01*
X711605Y-563255D01*
X711807Y-563267D01*
X712009Y-563285D01*
X712211Y-563307D01*
X712411Y-563334D01*
X712611Y-563367D01*
X712810Y-563404D01*
X713009Y-563446D01*
X713206Y-563492D01*
X713402Y-563544D01*
X713596Y-563600D01*
X713789Y-563662D01*
X713981Y-563728D01*
X714171Y-563798D01*
X714359Y-563873D01*
X714545Y-563953D01*
X714729Y-564038D01*
X714912Y-564126D01*
X715091Y-564220D01*
X715269Y-564317D01*
X715444Y-564419D01*
X715616Y-564526D01*
X715786Y-564636D01*
X715953Y-564751D01*
X716117Y-564870D01*
X716279Y-564992D01*
X716437Y-565119D01*
X716592Y-565249D01*
X716744Y-565383D01*
X716892Y-565521D01*
X717037Y-565663D01*
X717179Y-565808D01*
X717317Y-565956D01*
X717451Y-566108D01*
X717581Y-566263D01*
X717708Y-566421D01*
X717830Y-566583D01*
X717949Y-566747D01*
X718064Y-566914D01*
X718174Y-567084D01*
X718281Y-567256D01*
X718383Y-567431D01*
X718480Y-567609D01*
X718574Y-567788D01*
X718662Y-567971D01*
X718747Y-568155D01*
X718827Y-568341D01*
X718902Y-568529D01*
X718972Y-568719D01*
X719038Y-568911D01*
X719100Y-569104D01*
X719156Y-569298D01*
X719208Y-569494D01*
X719254Y-569691D01*
X719296Y-569890D01*
X719333Y-570089D01*
X719366Y-570289D01*
X719393Y-570489D01*
X719415Y-570691D01*
X719433Y-570893D01*
X719445Y-571095D01*
X719453Y-571297D01*
X719455Y-571500D01*
X719453Y-571703D01*
X719445Y-571905D01*
X719433Y-572107D01*
X719415Y-572309D01*
X719393Y-572511D01*
X719366Y-572711D01*
X719333Y-572911D01*
X719296Y-573110D01*
X719254Y-573309D01*
X719208Y-573506D01*
X719156Y-573702D01*
X719100Y-573896D01*
X719038Y-574089D01*
X718972Y-574281D01*
X718902Y-574471D01*
X718827Y-574659D01*
X718747Y-574845D01*
X718662Y-575029D01*
X718574Y-575212D01*
X718480Y-575391D01*
X718383Y-575569D01*
X718281Y-575744D01*
X718174Y-575916D01*
X718064Y-576086D01*
X717949Y-576253D01*
X717830Y-576417D01*
X717708Y-576579D01*
X717581Y-576737D01*
X717451Y-576892D01*
X717317Y-577044D01*
X717179Y-577192D01*
X717037Y-577337D01*
X716892Y-577479D01*
X716744Y-577617D01*
X716592Y-577751D01*
X716437Y-577881D01*
X716279Y-578008D01*
X716117Y-578130D01*
X715953Y-578249D01*
X715786Y-578364D01*
X715616Y-578474D01*
X715444Y-578581D01*
X715269Y-578683D01*
X715091Y-578780D01*
X714912Y-578874D01*
X714729Y-578962D01*
X714545Y-579047D01*
X714359Y-579127D01*
X714171Y-579202D01*
X713981Y-579272D01*
X713789Y-579338D01*
X713596Y-579400D01*
X713402Y-579456D01*
X713206Y-579508D01*
X713009Y-579554D01*
X712810Y-579596D01*
X712611Y-579633D01*
X712411Y-579666D01*
X712211Y-579693D01*
X712009Y-579715D01*
X711807Y-579733D01*
X711605Y-579745D01*
X711403Y-579753D01*
X711200Y-579755D01*
X710997Y-579753D01*
X710795Y-579745D01*
X710593Y-579733D01*
X710391Y-579715D01*
X710189Y-579693D01*
X709989Y-579666D01*
X709789Y-579633D01*
X709590Y-579596D01*
X709391Y-579554D01*
X709194Y-579508D01*
X708998Y-579456D01*
X708804Y-579400D01*
X708611Y-579338D01*
X708419Y-579272D01*
X708229Y-579202D01*
X708041Y-579127D01*
X707855Y-579047D01*
X707671Y-578962D01*
X707488Y-578874D01*
X707309Y-578780D01*
X707131Y-578683D01*
X706956Y-578581D01*
X706784Y-578474D01*
X706614Y-578364D01*
X706447Y-578249D01*
X706283Y-578130D01*
X706121Y-578008D01*
X705963Y-577881D01*
X705808Y-577751D01*
X705656Y-577617D01*
X705508Y-577479D01*
X705363Y-577337D01*
X705221Y-577192D01*
X705083Y-577044D01*
X704949Y-576892D01*
X704819Y-576737D01*
X704692Y-576579D01*
X704570Y-576417D01*
X704451Y-576253D01*
X704336Y-576086D01*
X704226Y-575916D01*
X704119Y-575744D01*
X704017Y-575569D01*
X703920Y-575391D01*
X703826Y-575212D01*
X703738Y-575029D01*
X703653Y-574845D01*
X703573Y-574659D01*
X703498Y-574471D01*
X703428Y-574281D01*
X703362Y-574089D01*
X703300Y-573896D01*
X703244Y-573702D01*
X703192Y-573506D01*
X703146Y-573309D01*
X703104Y-573110D01*
X703067Y-572911D01*
X703034Y-572711D01*
X703007Y-572511D01*
X702985Y-572309D01*
X702967Y-572107D01*
X702955Y-571905D01*
X702947Y-571703D01*
X702945Y-571500D01*
X702945Y-165100D02*
X702947Y-164897D01*
X702955Y-164695D01*
X702967Y-164493D01*
X702985Y-164291D01*
X703007Y-164089D01*
X703034Y-163889D01*
X703067Y-163689D01*
X703104Y-163490D01*
X703146Y-163291D01*
X703192Y-163094D01*
X703244Y-162898D01*
X703300Y-162704D01*
X703362Y-162511D01*
X703428Y-162319D01*
X703498Y-162129D01*
X703573Y-161941D01*
X703653Y-161755D01*
X703738Y-161571D01*
X703826Y-161388D01*
X703920Y-161209D01*
X704017Y-161031D01*
X704119Y-160856D01*
X704226Y-160684D01*
X704336Y-160514D01*
X704451Y-160347D01*
X704570Y-160183D01*
X704692Y-160021D01*
X704819Y-159863D01*
X704949Y-159708D01*
X705083Y-159556D01*
X705221Y-159408D01*
X705363Y-159263D01*
X705508Y-159121D01*
X705656Y-158983D01*
X705808Y-158849D01*
X705963Y-158719D01*
X706121Y-158592D01*
X706283Y-158470D01*
X706447Y-158351D01*
X706614Y-158236D01*
X706784Y-158126D01*
X706956Y-158019D01*
X707131Y-157917D01*
X707309Y-157820D01*
X707488Y-157726D01*
X707671Y-157638D01*
X707855Y-157553D01*
X708041Y-157473D01*
X708229Y-157398D01*
X708419Y-157328D01*
X708611Y-157262D01*
X708804Y-157200D01*
X708998Y-157144D01*
X709194Y-157092D01*
X709391Y-157046D01*
X709590Y-157004D01*
X709789Y-156967D01*
X709989Y-156934D01*
X710189Y-156907D01*
X710391Y-156885D01*
X710593Y-156867D01*
X710795Y-156855D01*
X710997Y-156847D01*
X711200Y-156845D01*
X711403Y-156847D01*
X711605Y-156855D01*
X711807Y-156867D01*
X712009Y-156885D01*
X712211Y-156907D01*
X712411Y-156934D01*
X712611Y-156967D01*
X712810Y-157004D01*
X713009Y-157046D01*
X713206Y-157092D01*
X713402Y-157144D01*
X713596Y-157200D01*
X713789Y-157262D01*
X713981Y-157328D01*
X714171Y-157398D01*
X714359Y-157473D01*
X714545Y-157553D01*
X714729Y-157638D01*
X714912Y-157726D01*
X715091Y-157820D01*
X715269Y-157917D01*
X715444Y-158019D01*
X715616Y-158126D01*
X715786Y-158236D01*
X715953Y-158351D01*
X716117Y-158470D01*
X716279Y-158592D01*
X716437Y-158719D01*
X716592Y-158849D01*
X716744Y-158983D01*
X716892Y-159121D01*
X717037Y-159263D01*
X717179Y-159408D01*
X717317Y-159556D01*
X717451Y-159708D01*
X717581Y-159863D01*
X717708Y-160021D01*
X717830Y-160183D01*
X717949Y-160347D01*
X718064Y-160514D01*
X718174Y-160684D01*
X718281Y-160856D01*
X718383Y-161031D01*
X718480Y-161209D01*
X718574Y-161388D01*
X718662Y-161571D01*
X718747Y-161755D01*
X718827Y-161941D01*
X718902Y-162129D01*
X718972Y-162319D01*
X719038Y-162511D01*
X719100Y-162704D01*
X719156Y-162898D01*
X719208Y-163094D01*
X719254Y-163291D01*
X719296Y-163490D01*
X719333Y-163689D01*
X719366Y-163889D01*
X719393Y-164089D01*
X719415Y-164291D01*
X719433Y-164493D01*
X719445Y-164695D01*
X719453Y-164897D01*
X719455Y-165100D01*
X719453Y-165303D01*
X719445Y-165505D01*
X719433Y-165707D01*
X719415Y-165909D01*
X719393Y-166111D01*
X719366Y-166311D01*
X719333Y-166511D01*
X719296Y-166710D01*
X719254Y-166909D01*
X719208Y-167106D01*
X719156Y-167302D01*
X719100Y-167496D01*
X719038Y-167689D01*
X718972Y-167881D01*
X718902Y-168071D01*
X718827Y-168259D01*
X718747Y-168445D01*
X718662Y-168629D01*
X718574Y-168812D01*
X718480Y-168991D01*
X718383Y-169169D01*
X718281Y-169344D01*
X718174Y-169516D01*
X718064Y-169686D01*
X717949Y-169853D01*
X717830Y-170017D01*
X717708Y-170179D01*
X717581Y-170337D01*
X717451Y-170492D01*
X717317Y-170644D01*
X717179Y-170792D01*
X717037Y-170937D01*
X716892Y-171079D01*
X716744Y-171217D01*
X716592Y-171351D01*
X716437Y-171481D01*
X716279Y-171608D01*
X716117Y-171730D01*
X715953Y-171849D01*
X715786Y-171964D01*
X715616Y-172074D01*
X715444Y-172181D01*
X715269Y-172283D01*
X715091Y-172380D01*
X714912Y-172474D01*
X714729Y-172562D01*
X714545Y-172647D01*
X714359Y-172727D01*
X714171Y-172802D01*
X713981Y-172872D01*
X713789Y-172938D01*
X713596Y-173000D01*
X713402Y-173056D01*
X713206Y-173108D01*
X713009Y-173154D01*
X712810Y-173196D01*
X712611Y-173233D01*
X712411Y-173266D01*
X712211Y-173293D01*
X712009Y-173315D01*
X711807Y-173333D01*
X711605Y-173345D01*
X711403Y-173353D01*
X711200Y-173355D01*
X710997Y-173353D01*
X710795Y-173345D01*
X710593Y-173333D01*
X710391Y-173315D01*
X710189Y-173293D01*
X709989Y-173266D01*
X709789Y-173233D01*
X709590Y-173196D01*
X709391Y-173154D01*
X709194Y-173108D01*
X708998Y-173056D01*
X708804Y-173000D01*
X708611Y-172938D01*
X708419Y-172872D01*
X708229Y-172802D01*
X708041Y-172727D01*
X707855Y-172647D01*
X707671Y-172562D01*
X707488Y-172474D01*
X707309Y-172380D01*
X707131Y-172283D01*
X706956Y-172181D01*
X706784Y-172074D01*
X706614Y-171964D01*
X706447Y-171849D01*
X706283Y-171730D01*
X706121Y-171608D01*
X705963Y-171481D01*
X705808Y-171351D01*
X705656Y-171217D01*
X705508Y-171079D01*
X705363Y-170937D01*
X705221Y-170792D01*
X705083Y-170644D01*
X704949Y-170492D01*
X704819Y-170337D01*
X704692Y-170179D01*
X704570Y-170017D01*
X704451Y-169853D01*
X704336Y-169686D01*
X704226Y-169516D01*
X704119Y-169344D01*
X704017Y-169169D01*
X703920Y-168991D01*
X703826Y-168812D01*
X703738Y-168629D01*
X703653Y-168445D01*
X703573Y-168259D01*
X703498Y-168071D01*
X703428Y-167881D01*
X703362Y-167689D01*
X703300Y-167496D01*
X703244Y-167302D01*
X703192Y-167106D01*
X703146Y-166909D01*
X703104Y-166710D01*
X703067Y-166511D01*
X703034Y-166311D01*
X703007Y-166111D01*
X702985Y-165909D01*
X702967Y-165707D01*
X702955Y-165505D01*
X702947Y-165303D01*
X702945Y-165100D01*
X855345Y-165100D02*
X855347Y-164897D01*
X855355Y-164695D01*
X855367Y-164493D01*
X855385Y-164291D01*
X855407Y-164089D01*
X855434Y-163889D01*
X855467Y-163689D01*
X855504Y-163490D01*
X855546Y-163291D01*
X855592Y-163094D01*
X855644Y-162898D01*
X855700Y-162704D01*
X855762Y-162511D01*
X855828Y-162319D01*
X855898Y-162129D01*
X855973Y-161941D01*
X856053Y-161755D01*
X856138Y-161571D01*
X856226Y-161388D01*
X856320Y-161209D01*
X856417Y-161031D01*
X856519Y-160856D01*
X856626Y-160684D01*
X856736Y-160514D01*
X856851Y-160347D01*
X856970Y-160183D01*
X857092Y-160021D01*
X857219Y-159863D01*
X857349Y-159708D01*
X857483Y-159556D01*
X857621Y-159408D01*
X857763Y-159263D01*
X857908Y-159121D01*
X858056Y-158983D01*
X858208Y-158849D01*
X858363Y-158719D01*
X858521Y-158592D01*
X858683Y-158470D01*
X858847Y-158351D01*
X859014Y-158236D01*
X859184Y-158126D01*
X859356Y-158019D01*
X859531Y-157917D01*
X859709Y-157820D01*
X859888Y-157726D01*
X860071Y-157638D01*
X860255Y-157553D01*
X860441Y-157473D01*
X860629Y-157398D01*
X860819Y-157328D01*
X861011Y-157262D01*
X861204Y-157200D01*
X861398Y-157144D01*
X861594Y-157092D01*
X861791Y-157046D01*
X861990Y-157004D01*
X862189Y-156967D01*
X862389Y-156934D01*
X862589Y-156907D01*
X862791Y-156885D01*
X862993Y-156867D01*
X863195Y-156855D01*
X863397Y-156847D01*
X863600Y-156845D01*
X863803Y-156847D01*
X864005Y-156855D01*
X864207Y-156867D01*
X864409Y-156885D01*
X864611Y-156907D01*
X864811Y-156934D01*
X865011Y-156967D01*
X865210Y-157004D01*
X865409Y-157046D01*
X865606Y-157092D01*
X865802Y-157144D01*
X865996Y-157200D01*
X866189Y-157262D01*
X866381Y-157328D01*
X866571Y-157398D01*
X866759Y-157473D01*
X866945Y-157553D01*
X867129Y-157638D01*
X867312Y-157726D01*
X867491Y-157820D01*
X867669Y-157917D01*
X867844Y-158019D01*
X868016Y-158126D01*
X868186Y-158236D01*
X868353Y-158351D01*
X868517Y-158470D01*
X868679Y-158592D01*
X868837Y-158719D01*
X868992Y-158849D01*
X869144Y-158983D01*
X869292Y-159121D01*
X869437Y-159263D01*
X869579Y-159408D01*
X869717Y-159556D01*
X869851Y-159708D01*
X869981Y-159863D01*
X870108Y-160021D01*
X870230Y-160183D01*
X870349Y-160347D01*
X870464Y-160514D01*
X870574Y-160684D01*
X870681Y-160856D01*
X870783Y-161031D01*
X870880Y-161209D01*
X870974Y-161388D01*
X871062Y-161571D01*
X871147Y-161755D01*
X871227Y-161941D01*
X871302Y-162129D01*
X871372Y-162319D01*
X871438Y-162511D01*
X871500Y-162704D01*
X871556Y-162898D01*
X871608Y-163094D01*
X871654Y-163291D01*
X871696Y-163490D01*
X871733Y-163689D01*
X871766Y-163889D01*
X871793Y-164089D01*
X871815Y-164291D01*
X871833Y-164493D01*
X871845Y-164695D01*
X871853Y-164897D01*
X871855Y-165100D01*
X871853Y-165303D01*
X871845Y-165505D01*
X871833Y-165707D01*
X871815Y-165909D01*
X871793Y-166111D01*
X871766Y-166311D01*
X871733Y-166511D01*
X871696Y-166710D01*
X871654Y-166909D01*
X871608Y-167106D01*
X871556Y-167302D01*
X871500Y-167496D01*
X871438Y-167689D01*
X871372Y-167881D01*
X871302Y-168071D01*
X871227Y-168259D01*
X871147Y-168445D01*
X871062Y-168629D01*
X870974Y-168812D01*
X870880Y-168991D01*
X870783Y-169169D01*
X870681Y-169344D01*
X870574Y-169516D01*
X870464Y-169686D01*
X870349Y-169853D01*
X870230Y-170017D01*
X870108Y-170179D01*
X869981Y-170337D01*
X869851Y-170492D01*
X869717Y-170644D01*
X869579Y-170792D01*
X869437Y-170937D01*
X869292Y-171079D01*
X869144Y-171217D01*
X868992Y-171351D01*
X868837Y-171481D01*
X868679Y-171608D01*
X868517Y-171730D01*
X868353Y-171849D01*
X868186Y-171964D01*
X868016Y-172074D01*
X867844Y-172181D01*
X867669Y-172283D01*
X867491Y-172380D01*
X867312Y-172474D01*
X867129Y-172562D01*
X866945Y-172647D01*
X866759Y-172727D01*
X866571Y-172802D01*
X866381Y-172872D01*
X866189Y-172938D01*
X865996Y-173000D01*
X865802Y-173056D01*
X865606Y-173108D01*
X865409Y-173154D01*
X865210Y-173196D01*
X865011Y-173233D01*
X864811Y-173266D01*
X864611Y-173293D01*
X864409Y-173315D01*
X864207Y-173333D01*
X864005Y-173345D01*
X863803Y-173353D01*
X863600Y-173355D01*
X863397Y-173353D01*
X863195Y-173345D01*
X862993Y-173333D01*
X862791Y-173315D01*
X862589Y-173293D01*
X862389Y-173266D01*
X862189Y-173233D01*
X861990Y-173196D01*
X861791Y-173154D01*
X861594Y-173108D01*
X861398Y-173056D01*
X861204Y-173000D01*
X861011Y-172938D01*
X860819Y-172872D01*
X860629Y-172802D01*
X860441Y-172727D01*
X860255Y-172647D01*
X860071Y-172562D01*
X859888Y-172474D01*
X859709Y-172380D01*
X859531Y-172283D01*
X859356Y-172181D01*
X859184Y-172074D01*
X859014Y-171964D01*
X858847Y-171849D01*
X858683Y-171730D01*
X858521Y-171608D01*
X858363Y-171481D01*
X858208Y-171351D01*
X858056Y-171217D01*
X857908Y-171079D01*
X857763Y-170937D01*
X857621Y-170792D01*
X857483Y-170644D01*
X857349Y-170492D01*
X857219Y-170337D01*
X857092Y-170179D01*
X856970Y-170017D01*
X856851Y-169853D01*
X856736Y-169686D01*
X856626Y-169516D01*
X856519Y-169344D01*
X856417Y-169169D01*
X856320Y-168991D01*
X856226Y-168812D01*
X856138Y-168629D01*
X856053Y-168445D01*
X855973Y-168259D01*
X855898Y-168071D01*
X855828Y-167881D01*
X855762Y-167689D01*
X855700Y-167496D01*
X855644Y-167302D01*
X855592Y-167106D01*
X855546Y-166909D01*
X855504Y-166710D01*
X855467Y-166511D01*
X855434Y-166311D01*
X855407Y-166111D01*
X855385Y-165909D01*
X855367Y-165707D01*
X855355Y-165505D01*
X855347Y-165303D01*
X855345Y-165100D01*
D12*
X254000Y-736600D02*
X1168400Y-736600D01*
X1168400Y152400D01*
X254000Y152400D01*
X254000Y-736600D01*
M02*
